<svg xmlns="http://www.w3.org/2000/svg" viewBox="0 0 512 512" style="height: 512px; width: 512px;"><defs><filter id="shadow-1" height="300%" width="300%" x="-100%" y="-100%"><feFlood flood-color="rgba(255, 255, 255, 1)" result="flood"></feFlood><feComposite in="flood" in2="SourceGraphic" operator="atop" result="composite"></feComposite><feGaussianBlur in="composite" stdDeviation="15" result="blur"></feGaussianBlur><feOffset dx="0" dy="0" result="offset"></feOffset><feComposite in="SourceGraphic" in2="offset" operator="over"></feComposite></filter><filter id="shadow-2" height="300%" width="300%" x="-100%" y="-100%"><feFlood flood-color="rgba(255, 255, 255, 1)" result="flood"></feFlood><feComposite in="flood" in2="SourceGraphic" operator="atop" result="composite"></feComposite><feGaussianBlur in="composite" stdDeviation="15" result="blur"></feGaussianBlur><feOffset dx="0" dy="0" result="offset"></feOffset><feComposite in="SourceGraphic" in2="offset" operator="over"></feComposite></filter></defs><g class="" transform="translate(0,0)" style=""><path d="M252.25 19.656c-34.16 0-66.38 9.506-94.75 26.344l68.188 47.844-15.313 42.53 82.03 93.407L183.5 156.313l.22-54.968-66.845-23.625c-28.81 28.75-50.6 66.493-61.97 109.436-6.075 34.104 5.67 67.812 29.22 90.75-1.25-7.402-1-15.176 1.063-22.875 6.26-23.364 27.1-39.113 50.124-40.06.665-.03 1.332-.03 2-.032 4.05-.018 8.156.408 12.25 1.343l.032-.093c61.34 16.437 98.998 77.615 87.28 139.032 6.477-.402 12.953-.626 19.44-.626 4.295 0 8.58.105 12.873.28-11.51-61.3 26.12-122.28 87.344-138.687l.033.125c3.422-.79 6.852-1.263 10.25-1.375.67-.02 1.333-.037 2-.03.666.006 1.335.034 2 .062 23.023.947 43.895 16.696 50.156 40.06 2.062 7.7 2.315 15.474 1.06 22.876 20.526-19.993 32.086-48.167 30.69-77.656C430.923 96.642 349.435 19.656 252.25 19.656zM46.062 255.906C46.1 311.113 62.733 361.88 90.5 402.062c39.134-24.48 82.53-39.502 126.875-45.03 8.79-35.65-2.307-71.59-26.438-96 1.086 7.14.763 14.604-1.218 22-7.707 28.757-37.525 45.955-66.282 38.25-1.42-.38-2.796-.828-4.157-1.313-33.404-10.436-59.297-34.338-73.218-64.064zm412.344 3.47C444.122 287.518 418.93 309.99 386.78 320c-1.34.476-2.696.907-4.092 1.28-28.758 7.707-58.545-9.49-66.25-38.25-1.985-7.404-2.31-14.88-1.22-22.03-23.965 24.24-35.08 59.87-26.624 95.28 44.495 4.587 88.188 18.693 127.78 42.283 25.778-38.76 41.338-86.902 42.032-139.188zM256.312 373.187c-53.683-.005-107.364 14.603-154.593 43.843 37.623 46.002 91.143 74.75 150.53 74.75 60.783 0 115.42-30.124 153.156-78.03-45.88-27.037-97.478-40.558-149.094-40.563z" fill="#ffffff" fill-opacity="0" stroke="#ffffff" stroke-opacity="1" stroke-width="6" transform="translate(25.6, 25.6) scale(0.9, 0.9) rotate(0, 256, 256) skewX(0) skewY(0)" filter="url(#shadow-1)"></path></g></svg>