<svg xmlns="http://www.w3.org/2000/svg" viewBox="0 0 512 512" style="height: 512px; width: 512px;"><defs><filter id="shadow-1" height="300%" width="300%" x="-100%" y="-100%"><feFlood flood-color="rgba(255, 255, 255, 1)" result="flood"></feFlood><feComposite in="flood" in2="SourceGraphic" operator="atop" result="composite"></feComposite><feGaussianBlur in="composite" stdDeviation="15" result="blur"></feGaussianBlur><feOffset dx="0" dy="0" result="offset"></feOffset><feComposite in="SourceGraphic" in2="offset" operator="over"></feComposite></filter><filter id="shadow-2" height="300%" width="300%" x="-100%" y="-100%"><feFlood flood-color="rgba(255, 255, 255, 1)" result="flood"></feFlood><feComposite in="flood" in2="SourceGraphic" operator="atop" result="composite"></feComposite><feGaussianBlur in="composite" stdDeviation="15" result="blur"></feGaussianBlur><feOffset dx="0" dy="0" result="offset"></feOffset><feComposite in="SourceGraphic" in2="offset" operator="over"></feComposite></filter></defs><g class="" transform="translate(0,0)" style=""><path d="M96 36.61L41.21 173.6c.26.6.84 1.4 2.15 2.5 2.16 1.8 6.2 4 11.49 5.8 10.57 3.5 25.9 5.5 41.15 5.5 15.2 0 30.6-2 41.2-5.5 5.2-1.8 9.3-4 11.4-5.8 1.3-1.2 1.9-1.9 2.2-2.5zm160 0L201.2 173.6c.3.6.9 1.3 2.2 2.5 2.1 1.8 6.2 4 11.4 5.8 10.6 3.5 26 5.5 41.2 5.5 15.3 0 30.6-2 41.2-5.5 5.2-1.8 9.3-4 11.4-5.8 1.3-1.2 1.9-1.9 2.2-2.5zm160 0L361.2 173.6c.3.6.9 1.3 2.2 2.5 2.1 1.8 6.2 4 11.4 5.8 10.6 3.5 26 5.5 41.2 5.5 15.2 0 30.6-2 41.2-5.5 5.2-1.8 9.3-4 11.4-5.8 1.3-1.2 1.9-1.9 2.2-2.5zM41 195.7v17c0 1 .2 1.8 2.36 3.7 2.16 1.8 6.2 4 11.49 5.8 10.57 3.5 25.9 5.5 41.15 5.5 15.2 0 30.6-2 41.2-5.5 5.2-1.8 9.3-4 11.4-5.8 2.2-1.9 2.4-2.7 2.4-3.7v-17c-2.6 1.2-5.3 2.3-8.2 3.2-13.4 4.5-30 6.5-46.8 6.5-16.75 0-33.42-2-46.85-6.5-2.87-.9-5.59-2-8.15-3.2zm160 0v17c0 1 .2 1.8 2.4 3.7 2.1 1.8 6.2 4 11.4 5.8 10.6 3.5 26 5.5 41.2 5.5 15.3 0 30.6-2 41.2-5.5 5.2-1.8 9.3-4 11.4-5.8 2.2-1.9 2.4-2.7 2.4-3.7v-17c-2.6 1.2-5.3 2.3-8.2 3.2-13.4 4.5-30 6.5-46.8 6.5-16.8 0-33.4-2-46.8-6.5-2.9-.9-5.6-2-8.2-3.2zm160 0v17c0 1 .2 1.8 2.4 3.7 2.1 1.8 6.2 4 11.4 5.8 10.6 3.5 26 5.5 41.2 5.5 15.2 0 30.6-2 41.2-5.5 5.2-1.8 9.3-4 11.4-5.8 2.2-1.9 2.4-2.7 2.4-3.7v-17c-2.6 1.2-5.3 2.3-8.2 3.2-13.4 4.5-30 6.5-46.8 6.5-16.8 0-33.4-2-46.8-6.5-2.9-.9-5.6-2-8.2-3.2zM41 236v158.3l17.06 34.1-16.71 33.4c.3.6.87 1.3 2.01 2.3 2.16 1.8 6.2 4 11.49 5.8 10.57 3.5 25.9 5.5 41.15 5.5 15.2 0 30.6-2 41.2-5.5 5.2-1.8 9.3-4 11.4-5.8 1.2-1 1.7-1.7 2.1-2.3l-16.8-33.4 17.1-34.1V236c-2.6 1.2-5.3 2.3-8.2 3.2-13.4 4.5-30 6.5-46.8 6.5-16.75 0-33.42-2-46.85-6.5-2.87-.9-5.59-2-8.15-3.2zm160 0v158.3l17.1 34.1-16.8 33.4c.4.6.9 1.3 2.1 2.3 2.1 1.8 6.2 4 11.4 5.8 10.6 3.5 26 5.5 41.2 5.5 15.3 0 30.6-2 41.2-5.5 5.2-1.8 9.3-4 11.4-5.8 1.2-1 1.7-1.7 2.1-2.3l-16.8-33.4 17.1-34.1V236c-2.6 1.2-5.3 2.3-8.2 3.2-13.4 4.5-30 6.5-46.8 6.5-16.8 0-33.4-2-46.8-6.5-2.9-.9-5.6-2-8.2-3.2zm160 0v158.3l17.1 34.1-16.8 33.4c.4.6.9 1.3 2.1 2.3 2.1 1.8 6.2 4 11.4 5.8 10.6 3.5 26 5.5 41.2 5.5 15.2 0 30.6-2 41.2-5.5 5.2-1.8 9.3-4 11.4-5.8 1.2-1 1.7-1.7 2.1-2.3l-16.8-33.4 17.1-34.1V236c-2.6 1.2-5.3 2.3-8.2 3.2-13.4 4.5-30 6.5-46.8 6.5-16.8 0-33.4-2-46.8-6.5-2.9-.9-5.6-2-8.2-3.2z" fill="#ffffff" fill-opacity="0" stroke="#ffffff" stroke-opacity="1" stroke-width="6" transform="translate(25.6, 25.6) scale(0.9, 0.9) rotate(0, 256, 256) skewX(0) skewY(0)" filter="url(#shadow-1)"></path></g></svg>