<svg xmlns="http://www.w3.org/2000/svg" viewBox="0 0 512 512" style="height: 512px; width: 512px;"><defs><filter id="shadow-1" height="300%" width="300%" x="-100%" y="-100%"><feFlood flood-color="rgba(255, 255, 255, 1)" result="flood"></feFlood><feComposite in="flood" in2="SourceGraphic" operator="atop" result="composite"></feComposite><feGaussianBlur in="composite" stdDeviation="15" result="blur"></feGaussianBlur><feOffset dx="0" dy="0" result="offset"></feOffset><feComposite in="SourceGraphic" in2="offset" operator="over"></feComposite></filter><filter id="shadow-2" height="300%" width="300%" x="-100%" y="-100%"><feFlood flood-color="rgba(255, 255, 255, 1)" result="flood"></feFlood><feComposite in="flood" in2="SourceGraphic" operator="atop" result="composite"></feComposite><feGaussianBlur in="composite" stdDeviation="15" result="blur"></feGaussianBlur><feOffset dx="0" dy="0" result="offset"></feOffset><feComposite in="SourceGraphic" in2="offset" operator="over"></feComposite></filter></defs><g class="" transform="translate(0,0)" style=""><path d="M238 16a12 12 0 0 0-12 12v50.5C140.87 92.783 76 166.81 76 256s64.87 163.217 150 177.5V484a12 12 0 0 0 12 12h36a12 12 0 0 0 12-12v-50.5c85.13-14.283 150-88.31 150-177.5S371.13 92.783 286 78.5V28a12 12 0 0 0-12-12h-36zm-12 155.125V199a12 12 0 0 0 12 12h36a12 12 0 0 0 12-12v-27.875c34.955 12.356 60 45.69 60 84.875 0 39.186-25.045 72.52-60 84.875V313a12 12 0 0 0-12-12h-36a12 12 0 0 0-12 12v27.875c-34.955-12.356-60-45.69-60-84.875 0-39.186 25.045-72.52 60-84.875z" fill="#ffffff" fill-opacity="0" stroke="#ffffff" stroke-opacity="1" stroke-width="6" transform="translate(25.6, 25.6) scale(0.9, 0.9) rotate(0, 256, 256) skewX(0) skewY(0)" filter="url(#shadow-1)"></path></g></svg>