<svg xmlns="http://www.w3.org/2000/svg" viewBox="0 0 512 512" style="height: 512px; width: 512px;"><defs><filter id="shadow-1" height="300%" width="300%" x="-100%" y="-100%"><feFlood flood-color="rgba(255, 255, 255, 1)" result="flood"></feFlood><feComposite in="flood" in2="SourceGraphic" operator="atop" result="composite"></feComposite><feGaussianBlur in="composite" stdDeviation="15" result="blur"></feGaussianBlur><feOffset dx="0" dy="0" result="offset"></feOffset><feComposite in="SourceGraphic" in2="offset" operator="over"></feComposite></filter><filter id="shadow-2" height="300%" width="300%" x="-100%" y="-100%"><feFlood flood-color="rgba(255, 255, 255, 1)" result="flood"></feFlood><feComposite in="flood" in2="SourceGraphic" operator="atop" result="composite"></feComposite><feGaussianBlur in="composite" stdDeviation="15" result="blur"></feGaussianBlur><feOffset dx="0" dy="0" result="offset"></feOffset><feComposite in="SourceGraphic" in2="offset" operator="over"></feComposite></filter></defs><g class="" transform="translate(0,0)" style=""><path d="M23.563 75.28C17.71 179.527 82.54 207.685 181.875 198.688 158.455 135.47 111.857 89.686 23.563 75.28zm474.625 0c-88.295 14.405-134.894 60.19-158.313 123.407 99.334 8.997 164.164-19.16 158.313-123.406zM55.03 283.53c20.276 35.905 40.59 66.526 60.908 91.876 96.78 28.22 194.46 26.484 293.406-1.312 19.378-25.143 38.59-55.332 57.594-90.563-121.66 108.32-286.123 103.457-411.907 0zM389.407 398.19c-84.598 20.145-168.747 21.634-252.22 1.812 85.106 90.85 170.073 89.535 252.22-1.813z" fill="#ffffff" fill-opacity="0" stroke="#ffffff" stroke-opacity="1" stroke-width="6" transform="translate(25.6, 25.6) scale(0.9, 0.9) rotate(0, 256, 256) skewX(0) skewY(0)" filter="url(#shadow-1)"></path></g></svg>