<svg xmlns="http://www.w3.org/2000/svg" viewBox="0 0 512 512" style="height: 512px; width: 512px;"><defs><filter id="shadow-1" height="300%" width="300%" x="-100%" y="-100%"><feFlood flood-color="rgba(255, 255, 255, 1)" result="flood"></feFlood><feComposite in="flood" in2="SourceGraphic" operator="atop" result="composite"></feComposite><feGaussianBlur in="composite" stdDeviation="15" result="blur"></feGaussianBlur><feOffset dx="0" dy="0" result="offset"></feOffset><feComposite in="SourceGraphic" in2="offset" operator="over"></feComposite></filter><filter id="shadow-2" height="300%" width="300%" x="-100%" y="-100%"><feFlood flood-color="rgba(255, 255, 255, 1)" result="flood"></feFlood><feComposite in="flood" in2="SourceGraphic" operator="atop" result="composite"></feComposite><feGaussianBlur in="composite" stdDeviation="15" result="blur"></feGaussianBlur><feOffset dx="0" dy="0" result="offset"></feOffset><feComposite in="SourceGraphic" in2="offset" operator="over"></feComposite></filter></defs><g class="" transform="translate(0,0)" style=""><path d="M52.47 16.94L16.95 52.45 71.3 106.6h22.59L215 227.7v56.5L93.84 405.4H71.28l-54.26 54.2 35.34 35.5 54.24-54.4v-22.5L227.8 297h56.4l121.2 121.2v22.5l54.2 54.3 35.4-35.4-54.3-54.2h-22.5L297 284.2v-56.5l121.1-121.1h22.6L495 52.36 459.7 17l-54.3 54.25v22.57L284.2 215h-56.4L106.6 93.86V71.28L52.47 16.94z" fill="#ffffff" fill-opacity="0" stroke="#ffffff" stroke-opacity="1" stroke-width="6" transform="translate(25.6, 25.6) scale(0.9, 0.9) rotate(0, 256, 256) skewX(0) skewY(0)" filter="url(#shadow-1)"></path></g></svg>